<svg width="28" height="28" viewBox="0 0 28 28" fill="none" xmlns="http://www.w3.org/2000/svg">
<path d="M2.33301 7.00016C2.33301 6.69074 2.45592 6.394 2.67472 6.17521C2.89351 5.95641 3.19026 5.8335 3.49967 5.8335H24.4997C24.8091 5.8335 25.1058 5.95641 25.3246 6.17521C25.5434 6.394 25.6663 6.69074 25.6663 7.00016C25.6663 7.30958 25.5434 7.60633 25.3246 7.82512C25.1058 8.04391 24.8091 8.16683 24.4997 8.16683H3.49967C3.19026 8.16683 2.89351 8.04391 2.67472 7.82512C2.45592 7.60633 2.33301 7.30958 2.33301 7.00016ZM2.33301 14.0375C2.33301 13.7281 2.45592 13.4313 2.67472 13.2125C2.89351 12.9937 3.19026 12.8708 3.49967 12.8708H24.4997C24.8091 12.8708 25.1058 12.9937 25.3246 13.2125C25.5434 13.4313 25.6663 13.7281 25.6663 14.0375C25.6663 14.3469 25.5434 14.6437 25.3246 14.8625C25.1058 15.0812 24.8091 15.2042 24.4997 15.2042H3.49967C3.19026 15.2042 2.89351 15.0812 2.67472 14.8625C2.45592 14.6437 2.33301 14.3469 2.33301 14.0375ZM3.49967 19.9082C3.19026 19.9082 2.89351 20.0311 2.67472 20.2499C2.45592 20.4687 2.33301 20.7654 2.33301 21.0748C2.33301 21.3842 2.45592 21.681 2.67472 21.8998C2.89351 22.1186 3.19026 22.2415 3.49967 22.2415H24.4997C24.8091 22.2415 25.1058 22.1186 25.3246 21.8998C25.5434 21.681 25.6663 21.3842 25.6663 21.0748C25.6663 20.7654 25.5434 20.4687 25.3246 20.2499C25.1058 20.0311 24.8091 19.9082 24.4997 19.9082H3.49967Z" fill="#7EB101"/>
</svg>
