<svg width="32" height="32" viewBox="0 0 32 32" fill="none" xmlns="http://www.w3.org/2000/svg">
<path d="M7.23333 13.6334L10.7667 15.1334C11.1667 14.3334 11.5944 13.5445 12.05 12.7668C12.5056 11.989 12.9889 11.2445 13.5 10.5334L10.8667 10.0001L7.23333 13.6334ZM12.3667 16.3334L16.8 20.7668C18.0667 20.189 19.2556 19.5334 20.3667 18.8001C21.4778 18.0668 22.3778 17.3556 23.0667 16.6668C24.8667 14.8668 26.1889 13.0223 27.0333 11.1334C27.8778 9.24454 28.3333 7.11121 28.4 4.73343C26.0222 4.80009 23.8889 5.25565 22 6.10009C20.1111 6.94454 18.2667 8.26676 16.4667 10.0668C15.7778 10.7557 15.0667 11.6557 14.3333 12.7668C13.6 13.8779 12.9444 15.0668 12.3667 16.3334ZM20 13.1334C19.5556 12.689 19.3333 12.139 19.3333 11.4834C19.3333 10.8279 19.5556 10.2779 20 9.83343C20.4444 9.38898 20.9944 9.16676 21.65 9.16676C22.3056 9.16676 22.8556 9.38898 23.3 9.83343C23.7444 10.2779 23.9667 10.8279 23.9667 11.4834C23.9667 12.139 23.7444 12.689 23.3 13.1334C22.8556 13.5779 22.3056 13.8001 21.65 13.8001C20.9944 13.8001 20.4444 13.5779 20 13.1334ZM19.5 25.9001L23.1333 22.2668L22.6 19.6334C21.8889 20.1445 21.1444 20.6279 20.3667 21.0834C19.5889 21.539 18.8 21.9668 18 22.3668L19.5 25.9001ZM30.3667 2.76676C30.5667 5.78898 30.1889 8.54454 29.2333 11.0334C28.2778 13.5223 26.7 15.8668 24.5 18.0668L24.4333 18.1334L24.3667 18.2001L25.1 21.8668C25.1667 22.2001 25.15 22.5223 25.05 22.8334C24.95 23.1445 24.7778 23.4223 24.5333 23.6668L18.8333 29.4001L16 22.8001L10.3333 17.1334L3.73333 14.3001L9.46667 8.60009C9.71111 8.35565 9.98889 8.18343 10.3 8.08343C10.6111 7.98343 10.9333 7.96676 11.2667 8.03343L14.9333 8.76676C14.9556 8.74454 14.9778 8.72787 15 8.71676C15.0222 8.70565 15.0444 8.68898 15.0667 8.66676C17.2667 6.46676 19.6111 4.88343 22.1 3.91676C24.5889 2.95009 27.3444 2.56676 30.3667 2.76676ZM5.96667 21.1668C6.74444 20.389 7.69444 19.9945 8.81667 19.9834C9.93889 19.9723 10.8889 20.3556 11.6667 21.1334C12.4444 21.9112 12.8278 22.8612 12.8167 23.9834C12.8056 25.1056 12.4111 26.0557 11.6333 26.8334C11.0556 27.4112 10.1611 27.889 8.95 28.2668C7.73889 28.6445 5.92222 29.0001 3.5 29.3334C3.83333 26.9112 4.18333 25.089 4.55 23.8668C4.91667 22.6445 5.38889 21.7445 5.96667 21.1668ZM7.36667 22.6001C7.05556 22.9334 6.77778 23.4557 6.53333 24.1668C6.28889 24.8779 6.07778 25.789 5.9 26.9001C7.01111 26.7223 7.92222 26.5112 8.63333 26.2668C9.34444 26.0223 9.86667 25.7445 10.2 25.4334C10.6222 25.0557 10.8389 24.5834 10.85 24.0168C10.8611 23.4501 10.6667 22.9557 10.2667 22.5334C9.84444 22.1334 9.35 21.939 8.78333 21.9501C8.21667 21.9612 7.74444 22.1779 7.36667 22.6001Z" fill="#7EB101"/>
</svg>
