<svg width="56" height="48" viewBox="0 0 56 48" fill="none" xmlns="http://www.w3.org/2000/svg">
<g filter="url(#filter0_d_1_738)">
<rect x="4" y="40" width="40" height="48" rx="8" transform="rotate(-90 4 40)" fill="white"/>
<path d="M17.4503 20.9052L31.3828 34.1802C31.6152 34.4018 31.9241 34.5254 32.2453 34.5254C32.5664 34.5254 32.8753 34.4018 33.1077 34.1802L33.1228 34.1652C33.2358 34.0577 33.3259 33.9284 33.3874 33.7851C33.449 33.6417 33.4807 33.4874 33.4807 33.3314C33.4807 33.1754 33.449 33.0211 33.3874 32.8777C33.3259 32.7344 33.2358 32.6051 33.1228 32.4977L20.0028 19.9977L33.1228 7.50265C33.2358 7.39522 33.3259 7.2659 33.3874 7.12257C33.449 6.97924 33.4807 6.82489 33.4807 6.6689C33.4807 6.51292 33.449 6.35857 33.3874 6.21523C33.3259 6.0719 33.2358 5.94259 33.1228 5.83515L33.1078 5.82015C32.8753 5.59854 32.5664 5.47491 32.2453 5.47491C31.9241 5.47491 31.6152 5.59854 31.3828 5.82015L17.4503 19.0952C17.3277 19.2119 17.2302 19.3523 17.1635 19.5079C17.0969 19.6634 17.0625 19.8309 17.0625 20.0002C17.0625 20.1694 17.0969 20.3369 17.1635 20.4924C17.2302 20.648 17.3277 20.7884 17.4503 20.9052Z" fill="#2C2C2C"/>
</g>
<defs>
<filter id="filter0_d_1_738" x="0" y="0" width="56" height="48" filterUnits="userSpaceOnUse" color-interpolation-filters="sRGB">
<feFlood flood-opacity="0" result="BackgroundImageFix"/>
<feColorMatrix in="SourceAlpha" type="matrix" values="0 0 0 0 0 0 0 0 0 0 0 0 0 0 0 0 0 0 127 0" result="hardAlpha"/>
<feOffset dy="4"/>
<feGaussianBlur stdDeviation="2"/>
<feComposite in2="hardAlpha" operator="out"/>
<feColorMatrix type="matrix" values="0 0 0 0 0 0 0 0 0 0 0 0 0 0 0 0 0 0 0.06 0"/>
<feBlend mode="normal" in2="BackgroundImageFix" result="effect1_dropShadow_1_738"/>
<feBlend mode="normal" in="SourceGraphic" in2="effect1_dropShadow_1_738" result="shape"/>
</filter>
</defs>
</svg>
